<svg width="19" height="20" viewBox="0 0 19 20" fill="none" xmlns="http://www.w3.org/2000/svg">
<path d="M13.5714 1.69907H5.21422C2.90645 1.69907 1.03564 3.56988 1.03564 5.87764V14.2348C1.03564 16.5425 2.90645 18.4134 5.21422 18.4134H13.5714C15.8791 18.4134 17.7499 16.5425 17.7499 14.2348V5.87764C17.7499 3.56988 15.8791 1.69907 13.5714 1.69907Z" stroke="white" stroke-width="1.5"/>
<path d="M12.7356 9.52993C12.8388 10.2255 12.72 10.9358 12.3961 11.5599C12.0723 12.184 11.5599 12.6901 10.9318 13.0062C10.3038 13.3223 9.59204 13.4324 8.89784 13.3207C8.20365 13.209 7.56235 12.8812 7.06516 12.384C6.56798 11.8868 6.24022 11.2455 6.12852 10.5514C6.01681 9.85716 6.12685 9.14542 6.44296 8.51736C6.75908 7.8893 7.26519 7.37692 7.8893 7.05308C8.51341 6.72924 9.22374 6.61044 9.91926 6.71358C10.6287 6.81878 11.2855 7.14937 11.7927 7.65652C12.2998 8.16366 12.6304 8.82048 12.7356 9.52993Z" stroke="white" stroke-width="1.5" stroke-linecap="round" stroke-linejoin="round"/>
</svg>
